<svg width="473" height="473" viewBox="0 0 473 473" fill="none" xmlns="http://www.w3.org/2000/svg">
<path d="M76 255.903C76 246.938 79.8842 241.092 89.9831 239.533C95.8094 238.754 102.024 238.364 108.239 238.364C108.239 230.959 105.131 227.451 97.3631 227.451C91.1484 227.451 84.5452 228.231 79.4958 228.621L78.3305 220.826C83.7684 220.046 90.76 218.877 98.1399 218.877C109.404 218.877 118.726 221.995 118.726 235.246V258.241C118.726 261.749 118.726 264.477 118.338 267.595C112.511 270.713 104.743 272.272 95.0326 272.272C81.4379 272.272 76 266.815 76 255.903ZM108.239 245.379C103.578 245.379 98.5283 245.769 94.2557 246.549C88.8179 247.718 86.8758 249.277 86.8758 255.513C86.8758 262.138 90.3715 263.697 96.9747 263.697C100.47 263.697 104.355 263.308 107.85 261.749C108.239 259.8 108.239 257.072 108.239 254.733V245.379ZM160.287 229.01C157.568 228.621 154.461 227.841 151.353 227.841C137.759 227.841 136.205 231.738 136.205 244.99C136.205 257.851 136.593 262.918 151.353 262.918C154.461 262.918 157.18 262.528 160.287 261.749L161.064 270.323C156.791 271.492 151.353 272.272 145.139 272.272C128.048 272.272 124.941 259.021 124.941 244.99C124.941 227.841 128.825 218.877 147.858 218.877C153.296 218.877 157.568 219.656 161.064 220.826L160.287 229.01ZM216.608 271.492H203.79L191.361 252.785L178.931 271.492H166.89L185.534 244.6L168.055 219.656H180.873L192.138 236.805L203.402 219.656H215.054L197.575 244.6L216.608 271.492ZM230.591 212.251C225.542 212.251 223.988 210.692 223.988 205.626C223.988 200.559 225.542 199 230.591 199C235.641 199 237.194 200.559 237.194 205.626C237.194 210.692 235.641 212.251 230.591 212.251ZM225.153 271.492V219.656H236.417V271.492H225.153V271.492ZM353.332 271.492H342.456V239.533C342.456 231.738 340.514 227.841 332.357 227.841C329.638 227.841 326.531 228.621 324.589 229.4C324.2 231.349 324.2 234.077 324.2 236.415V271.492H312.936V232.908C312.936 229.4 312.936 226.672 313.324 223.554C318.762 220.826 326.919 218.877 334.688 218.877C340.514 218.877 344.786 220.046 347.505 221.995C352.166 220.046 358.381 218.877 364.207 218.877C380.521 218.877 382.852 227.841 382.852 238.364V271.492H371.976V239.533C371.976 231.738 370.034 227.841 361.877 227.841C359.546 227.451 355.662 227.841 352.555 229.79C353.332 232.518 353.332 235.246 353.332 237.974V271.492ZM293.127 244.6C292.738 240.313 291.961 236.026 290.019 232.128C289.631 230.959 289.242 229.79 288.854 228.621C289.242 228.231 289.242 227.841 289.242 227.451C292.738 227.841 296.622 228.231 300.118 229.79C301.283 232.128 302.449 234.467 303.226 236.805C301.672 238.754 298.176 241.872 293.903 245.379C293.515 244.99 293.515 244.99 293.127 244.6ZM286.135 224.333C286.912 224.333 287.689 224.723 288.077 225.503C288.077 225.892 288.466 225.892 288.466 226.282C291.961 226.672 295.457 227.062 298.565 228.231C294.292 221.995 287.3 217.318 279.532 216.149C281.474 217.708 283.805 220.436 286.135 224.333ZM262.83 227.841C263.218 228.231 263.607 228.621 263.607 229.01C269.433 227.451 275.259 226.282 280.697 226.282C281.862 226.282 283.028 226.282 284.193 226.282C284.193 225.892 284.193 225.503 284.581 225.503C280.697 219.656 277.201 216.149 276.813 216.149V215.759C276.036 215.759 275.259 215.759 274.482 215.759C272.152 215.759 269.821 216.149 267.491 216.538C267.491 216.928 264.772 220.826 262.83 227.841ZM285.747 272.662C289.242 271.492 291.961 269.544 294.68 267.205C293.127 267.205 291.961 266.815 290.408 266.815C290.019 267.595 289.242 267.985 288.466 267.985C287.689 269.154 286.524 271.103 285.747 272.662ZM290.796 248.887C290.019 249.277 289.242 249.667 288.466 250.446C282.251 253.954 275.648 256.292 268.656 257.462C267.879 257.462 267.491 257.462 266.714 257.851V258.241C272.152 260.579 279.144 262.528 286.912 263.697C287.3 262.918 288.077 262.528 288.854 262.528C290.408 258.241 291.185 254.344 291.573 250.056C291.185 249.667 290.796 249.277 290.796 248.887ZM291.185 244.6C290.796 240.703 290.019 236.805 288.466 232.908C288.077 231.738 287.689 230.569 286.912 229.79C286.135 229.79 285.358 229.4 284.97 228.621C284.581 228.231 284.581 227.841 284.581 227.841C276.813 227.841 269.433 229.01 263.995 230.569C263.995 230.959 263.995 230.959 263.995 231.349C263.218 232.518 262.441 233.297 261.665 233.687C260.888 238.754 260.888 245.379 262.441 253.174C264.384 253.174 266.326 254.733 266.714 256.682C274.094 255.513 281.086 253.174 287.689 249.277C288.466 248.887 289.242 248.497 290.019 247.718V247.328C289.631 246.159 290.408 244.99 291.185 244.6ZM294.292 246.549C294.68 248.108 293.903 249.277 293.127 249.667C293.127 250.056 293.127 250.836 293.127 251.226C292.738 255.123 291.961 259.021 290.408 262.528C290.796 262.918 290.796 263.308 290.796 264.087C292.738 264.087 294.68 264.477 296.622 264.477C301.283 259.41 304.002 252.395 304.002 244.6C304.002 242.262 303.614 239.923 303.226 237.974C301.672 240.313 298.565 243.431 294.292 246.549ZM286.524 267.205C286.135 266.815 286.135 266.426 286.135 266.036C278.367 264.867 271.375 262.528 265.937 260.579C265.549 260.969 265.16 261.359 264.772 261.749C265.937 265.646 267.491 269.933 269.821 274.61C271.764 275 273.317 275 275.259 275C277.978 275 280.697 274.61 283.028 273.831C284.193 271.492 285.358 269.154 286.524 267.205ZM246.905 235.636C249.624 227.062 256.227 220.436 264.772 216.928C263.607 218.877 262.053 222.385 260.888 227.062C259.723 227.451 258.557 228.621 258.169 229.79C258.169 230.179 258.169 230.569 258.169 230.569C253.119 232.518 248.847 234.856 246.905 235.636ZM257.78 256.682C252.343 253.954 248.458 251.615 245.739 249.667C246.128 252.005 246.516 253.954 247.682 255.903C250.789 256.682 254.285 257.072 257.78 256.682C257.78 256.682 257.78 257.072 257.78 256.682ZM262.053 262.138C259.723 262.138 257.78 260.579 257.78 258.631C254.673 258.631 251.566 258.241 248.07 257.851C251.566 265.256 258.169 271.103 266.326 273.441C264.772 269.544 263.218 265.646 262.053 262.138ZM260.111 253.564C259.723 252.395 259.723 251.226 259.723 250.056C258.946 244.21 258.946 238.754 259.723 233.297C258.946 232.908 258.557 232.518 258.557 232.128C252.343 234.467 248.07 236.805 246.516 237.585C245.739 239.923 245.739 242.262 245.739 244.99C245.739 245.769 245.739 246.159 245.739 246.938C248.458 248.887 252.731 252.005 258.946 254.733C258.946 254.344 259.334 253.564 260.111 253.564ZM398 267.595C398 268.374 398 268.764 397.612 269.544C397.223 270.323 397.223 270.713 396.835 271.103C396.446 271.492 396.058 271.882 395.281 271.882C394.893 272.272 394.116 272.272 393.727 272.272C393.339 272.272 392.562 272.272 391.785 271.882C391.397 271.492 390.62 271.492 390.232 271.103C389.843 270.713 389.455 270.323 389.455 269.544C389.455 268.764 389.066 268.374 389.066 267.595C389.066 266.815 389.066 266.426 389.455 265.646C389.843 264.867 389.843 264.477 390.232 264.087C390.62 263.697 391.008 263.308 391.785 263.308C392.174 262.918 392.951 262.918 393.339 262.918C393.727 262.918 394.504 262.918 394.893 263.308C395.281 263.308 395.669 263.697 396.446 264.087C396.835 264.477 397.223 264.867 397.223 265.646C398 266.036 398 266.815 398 267.595ZM397.223 267.595C397.223 267.205 397.223 266.426 396.835 266.036C396.835 265.646 396.446 265.256 396.058 264.867C395.669 264.477 395.281 264.087 394.893 264.087C394.504 264.087 394.116 263.697 393.727 263.697C393.339 263.697 392.951 263.697 392.562 264.087C392.174 264.087 391.785 264.477 391.397 264.867C391.008 265.256 391.008 265.646 390.62 266.036C390.62 266.426 390.232 266.815 390.232 267.595C390.232 267.985 390.232 268.374 390.62 269.154C391.008 269.933 391.008 269.933 391.397 270.323C391.785 270.713 392.174 271.103 392.562 271.103C392.951 271.103 393.339 271.492 394.116 271.492C394.504 271.492 394.893 271.492 395.281 271.103C395.669 271.103 396.058 270.713 396.446 270.323C396.835 269.933 396.835 269.544 397.223 269.154C396.835 268.374 397.223 267.985 397.223 267.595ZM392.951 269.933H392.174V264.867H394.116C394.893 264.867 395.281 264.867 395.281 265.256C395.669 265.646 395.669 266.036 395.669 266.426C395.669 266.815 395.669 267.205 395.281 267.205C394.893 267.205 394.893 267.595 394.504 267.595L396.058 269.933H394.893L393.727 267.595H392.951V269.933ZM393.727 267.205H394.116H394.504C394.504 267.205 394.504 267.205 394.893 266.815V266.426V266.036C394.893 266.036 394.893 266.036 394.504 266.036H394.116H393.727H392.951V267.595L393.727 267.205Z" fill="white"/>
</svg>
