<svg width="473" height="473" viewBox="0 0 473 473" fill="none" xmlns="http://www.w3.org/2000/svg">
<g clip-path="url(#clip0_2310:5380)">
<path d="M104.106 234.002V233.642C114.172 231.003 118.874 224.945 118.874 218.288C118.874 211.33 113.991 206.652 105.914 204.313C101.153 202.933 93.9798 201.854 84.1548 201.854C76.2587 201.854 69.4475 202.393 64.8062 203.293C59.743 204.313 58.2964 206.472 58.2964 211.09V261.292C58.2964 265.671 59.743 268.19 64.8062 269.089C69.0255 269.869 76.3189 270.349 84.1548 270.349C93.1962 270.349 100.67 269.449 106.517 267.77C115.438 265.071 121.285 259.073 121.285 251.456C121.285 243.958 116.161 237.061 104.106 234.002Z" fill="white"/>
<path d="M374.564 201.793C369.14 201.793 365.463 201.973 361.243 202.633C356.301 203.413 354.553 205.872 354.553 210.55V261.592C354.553 266.27 356.301 268.789 361.243 269.509C365.463 270.169 369.14 270.349 374.564 270.349C398.494 270.349 419.952 259.853 419.952 236.041C419.952 212.23 398.494 201.793 374.564 201.793Z" fill="white"/>
<path d="M165.045 201.254C144.069 201.254 128.639 215.349 128.639 236.281C128.639 257.034 144.13 270.889 164.985 270.889C185.961 270.889 201.392 256.794 201.392 235.862C201.452 215.109 185.961 201.254 165.045 201.254Z" fill="white"/>
<path d="M345.632 207.79C345.632 205.331 344.728 204.192 342.136 203.532C337.676 202.392 328.333 201.732 315.374 201.732C307.96 201.732 298.376 202.332 293.011 203.112C288.069 203.892 286.381 206.351 286.381 210.849V261.171C286.381 265.669 288.069 268.189 293.011 268.908C298.376 269.748 307.96 270.288 315.374 270.288C328.333 270.288 337.676 269.568 342.136 268.488C344.788 267.829 345.632 266.689 345.632 264.23C345.632 257.872 340.569 249.595 326.585 246.356V245.937C336.531 244.857 340.388 240.718 340.388 235.98C340.388 231.302 336.531 227.163 326.585 226.024V225.604C340.569 222.425 345.632 214.148 345.632 207.79Z" fill="white"/>
<path d="M262.994 234.902L276.254 213.609C277.641 211.33 277.46 209.531 275.772 207.731C272.457 204.253 266.068 201.793 259.919 201.793C252.566 201.793 246.538 204.433 242.198 209.351H241.957C237.557 204.492 231.469 201.793 224.115 201.793C217.967 201.793 211.638 204.253 208.263 207.731C206.575 209.531 206.394 211.33 207.781 213.609L221.041 234.902L206.575 258.773C205.43 260.752 205.43 262.672 206.816 264.231C210.071 267.89 215.918 270.289 222.91 270.289C230.806 270.289 237.316 267.11 241.837 261.592H242.078C246.598 267.11 253.229 270.289 261.185 270.289C268.177 270.289 273.964 267.89 277.279 264.231C278.665 262.672 278.665 260.752 277.52 258.773L262.994 234.902Z" fill="white"/>
</g>
<defs>
<clipPath id="clip0_2310:5380">
<rect width="366" height="69" fill="white" transform="translate(54 202)"/>
</clipPath>
</defs>
</svg>
