<svg width="33" height="32" viewBox="0 0 33 32" fill="none" xmlns="http://www.w3.org/2000/svg">
<path d="M17.127 6.66683C17.127 5.93045 16.53 5.3335 15.7936 5.3335C15.0572 5.3335 14.4603 5.93045 14.4603 6.66683V14.6667L6.46029 14.6667C5.72391 14.6667 5.12695 15.2637 5.12695 16C5.12695 16.7364 5.72391 17.3334 6.46029 17.3334L14.4603 17.3334V25.3335C14.4603 26.0699 15.0572 26.6668 15.7936 26.6668C16.53 26.6668 17.127 26.0699 17.127 25.3335V17.3334L25.127 17.3334C25.8633 17.3334 26.4603 16.7364 26.4603 16C26.4603 15.2637 25.8633 14.6667 25.127 14.6667L17.127 14.6667V6.66683Z" fill="#00ED64"/>
</svg>
